<mxfile host="app.diagrams.net" modified="2023-12-27T23:13:10.105Z" agent="Mozilla/5.0 (Windows NT 10.0; Win64; x64) AppleWebKit/537.36 (KHTML, like Gecko) Chrome/120.0.0.0 Safari/537.36" etag="KXDrDDk0b13-7dTDoP5E" version="22.1.15" type="device">
  <diagram name="Pagina-1" id="XDVQBBCF-L1XikH7nVsn">
    <mxGraphModel dx="1687" dy="962" grid="1" gridSize="10" guides="1" tooltips="1" connect="1" arrows="1" fold="1" page="1" pageScale="1" pageWidth="827" pageHeight="1169" background="none" math="0" shadow="0">
      <root>
        <mxCell id="0" />
        <mxCell id="1" parent="0" />
        <mxCell id="QQgcrtUqfCO4MeJ4Ytzc-3" value="" style="verticalLabelPosition=bottom;verticalAlign=top;html=1;shape=mxgraph.basic.half_circle;rotation=-180;fillColor=none;strokeWidth=5;strokeColor=none;" vertex="1" parent="1">
          <mxGeometry x="110" y="200" width="850" height="450" as="geometry" />
        </mxCell>
        <mxCell id="QQgcrtUqfCO4MeJ4Ytzc-7" value="" style="endArrow=none;html=1;rounded=0;exitX=0.5;exitY=0;exitDx=0;exitDy=0;exitPerimeter=0;entryX=0.734;entryY=0.887;entryDx=0;entryDy=0;entryPerimeter=0;strokeColor=#FFFFFF;strokeWidth=4;" edge="1" parent="1" source="QQgcrtUqfCO4MeJ4Ytzc-3" target="QQgcrtUqfCO4MeJ4Ytzc-3">
          <mxGeometry width="50" height="50" relative="1" as="geometry">
            <mxPoint x="390" y="430" as="sourcePoint" />
            <mxPoint x="440" y="380" as="targetPoint" />
          </mxGeometry>
        </mxCell>
        <mxCell id="QQgcrtUqfCO4MeJ4Ytzc-8" value="" style="endArrow=none;html=1;rounded=0;exitX=0.5;exitY=0;exitDx=0;exitDy=0;exitPerimeter=0;strokeColor=#FFFFFF;strokeWidth=4;entryX=0.054;entryY=0.278;entryDx=0;entryDy=0;entryPerimeter=0;" edge="1" parent="1" source="QQgcrtUqfCO4MeJ4Ytzc-3" target="QQgcrtUqfCO4MeJ4Ytzc-14">
          <mxGeometry width="50" height="50" relative="1" as="geometry">
            <mxPoint x="560" y="670" as="sourcePoint" />
            <mxPoint x="720" y="250" as="targetPoint" />
          </mxGeometry>
        </mxCell>
        <mxCell id="QQgcrtUqfCO4MeJ4Ytzc-9" value="" style="endArrow=none;html=1;rounded=0;strokeColor=#FFFFFF;strokeWidth=4;entryX=0.357;entryY=0.962;entryDx=0;entryDy=0;entryPerimeter=0;exitX=0.5;exitY=0;exitDx=0;exitDy=0;exitPerimeter=0;" edge="1" parent="1" source="QQgcrtUqfCO4MeJ4Ytzc-3" target="QQgcrtUqfCO4MeJ4Ytzc-3">
          <mxGeometry width="50" height="50" relative="1" as="geometry">
            <mxPoint x="470" y="570" as="sourcePoint" />
            <mxPoint x="660" y="230" as="targetPoint" />
          </mxGeometry>
        </mxCell>
        <mxCell id="QQgcrtUqfCO4MeJ4Ytzc-10" value="" style="endArrow=none;html=1;rounded=0;strokeColor=#FFFFFF;strokeWidth=4;entryX=0.448;entryY=0.996;entryDx=0;entryDy=0;entryPerimeter=0;exitX=0.5;exitY=0;exitDx=0;exitDy=0;exitPerimeter=0;" edge="1" parent="1" source="QQgcrtUqfCO4MeJ4Ytzc-3" target="QQgcrtUqfCO4MeJ4Ytzc-3">
          <mxGeometry width="50" height="50" relative="1" as="geometry">
            <mxPoint x="550" y="650" as="sourcePoint" />
            <mxPoint x="669" y="231" as="targetPoint" />
          </mxGeometry>
        </mxCell>
        <mxCell id="QQgcrtUqfCO4MeJ4Ytzc-11" value="" style="endArrow=none;html=1;rounded=0;strokeColor=#FFFFFF;strokeWidth=4;entryX=0.548;entryY=0.996;entryDx=0;entryDy=0;entryPerimeter=0;exitX=0.5;exitY=0;exitDx=0;exitDy=0;exitPerimeter=0;" edge="1" parent="1" source="QQgcrtUqfCO4MeJ4Ytzc-3" target="QQgcrtUqfCO4MeJ4Ytzc-3">
          <mxGeometry width="50" height="50" relative="1" as="geometry">
            <mxPoint x="560" y="660" as="sourcePoint" />
            <mxPoint x="598" y="220" as="targetPoint" />
          </mxGeometry>
        </mxCell>
        <mxCell id="QQgcrtUqfCO4MeJ4Ytzc-14" value="" style="verticalLabelPosition=bottom;verticalAlign=top;html=1;shape=mxgraph.basic.arc;startAngle=0.6726719966746257;endAngle=0.8245055033377264;strokeWidth=4;strokeColor=#FFFFFF;rotation=90;perimeter=ellipsePerimeter;snapToPoint=1;" vertex="1" parent="1">
          <mxGeometry x="80.48" y="228.07" width="901.73" height="844.14" as="geometry" />
        </mxCell>
        <mxCell id="QQgcrtUqfCO4MeJ4Ytzc-12" value="" style="endArrow=none;html=1;rounded=0;strokeColor=#FFFFFF;strokeWidth=4;entryX=0.638;entryY=0.964;entryDx=0;entryDy=0;entryPerimeter=0;exitX=0.5;exitY=0;exitDx=0;exitDy=0;exitPerimeter=0;" edge="1" parent="1" source="QQgcrtUqfCO4MeJ4Ytzc-3" target="QQgcrtUqfCO4MeJ4Ytzc-3">
          <mxGeometry width="50" height="50" relative="1" as="geometry">
            <mxPoint x="550" y="660" as="sourcePoint" />
            <mxPoint x="520" y="218" as="targetPoint" />
          </mxGeometry>
        </mxCell>
      </root>
    </mxGraphModel>
  </diagram>
</mxfile>
